<?xml version="1.0" encoding="UTF-8"?>
<svg width="63px" height="63px" viewBox="0 0 63 63" version="1.1" xmlns="http://www.w3.org/2000/svg" xmlns:xlink="http://www.w3.org/1999/xlink">
    <g id="Page-1" stroke="none" stroke-width="1" fill="none" fill-rule="evenodd">
        <g id="clock-white" fill="#ffffff" fill-rule="nonzero">
            <path d="M31.5,0 C14.1309078,0 0,14.1309078 0,31.5 C0,48.8690922 14.1309078,63 31.5,63 C48.8690922,63 63,48.8690922 63,31.5 C63,14.1309078 48.8690922,0 31.5,0 Z M31.5,56.2973343 C17.8268732,56.2973343 6.70201729,45.1737752 6.70201729,31.5 C6.70201729,17.8262248 17.8268732,6.70266571 31.5,6.70266571 C45.1731268,6.70266571 56.2979827,17.8262248 56.2979827,31.5 C56.2979827,45.1737752 45.1731268,56.2973343 31.5,56.2973343 Z" id="Shape"></path>
            <path d="M48.3989123,30.7712418 L34.2021755,30.7712418 L34.2021755,13.6143791 C34.2021755,12.1705882 33.0375384,11 31.6010877,11 C30.164637,11 29,12.1705882 29,13.6143791 L29,33.3856209 C29,34.8294118 30.164637,36 31.6010877,36 L48.3989123,36 C49.835363,36 51,34.8294118 51,33.3856209 C51,31.9418301 49.835363,30.7712418 48.3989123,30.7712418 Z" id="Shape"></path>
        </g>
    </g>
</svg>