<?xml version="1.0" encoding="UTF-8"?>
<svg width="64px" height="64px" viewBox="0 0 64 64" version="1.1" xmlns="http://www.w3.org/2000/svg" xmlns:xlink="http://www.w3.org/1999/xlink">
    <g id="Page-1" stroke="none" stroke-width="1" fill="none" fill-rule="evenodd">
        <g id="goal" fill="#FFFFFF" fill-rule="nonzero">
            <path d="M63.5609825,38.3850292 L56.763883,28.189193 L63.5662222,17.8722183 C63.945232,17.2974659 63.9780429,16.5610292 63.6516803,15.954963 C63.325193,15.3487719 62.6924288,14.9707602 62.0038986,14.9707602 L45.1617934,14.9707602 L45.1617934,9.35672515 C45.1617934,6.2611462 42.6433372,3.74269006 39.5477583,3.74269006 L18.3915789,3.74269006 C17.6190877,1.56469396 15.5390253,0 13.0994152,0 C10.0038363,0 7.48538012,2.51845614 7.48538012,5.61403509 L7.48538012,60.1325536 L1.87134503,60.1325536 C0.837863548,60.1325536 0,60.9704172 0,62.0038986 C0,63.0373801 0.837863548,63.8752437 1.87134503,63.8752437 C2.61352047,63.8752437 23.1701209,63.8752437 24.3274854,63.8752437 C25.3609669,63.8752437 26.1988304,63.0373801 26.1988304,62.0038986 C26.1988304,60.9704172 25.3609669,60.1325536 24.3274854,60.1325536 L18.7134503,60.1325536 L18.7134503,33.8089669 L41.4191033,33.8089669 L41.4191033,35.6803119 C41.4191033,38.7758908 43.9375595,41.294347 47.0331384,41.294347 L62.0038986,41.294347 C62.6940507,41.294347 63.3281871,40.9144639 63.6539259,40.3060273 C63.9794152,39.6975906 63.9437349,38.9591579 63.5609825,38.3850292 Z M14.9707602,31.9376218 L14.9707602,60.1325536 L11.2280702,60.1325536 L11.2280702,5.61403509 C11.2280702,4.58217544 12.0675556,3.74269006 13.0994152,3.74269006 C14.1312749,3.74269006 14.9707602,4.58217544 14.9707602,5.61403509 L14.9707602,31.9376218 Z M41.4191033,30.0662768 L18.7134503,30.0662768 L18.7134503,7.48538012 L39.5477583,7.48538012 C40.5796179,7.48538012 41.4191033,8.3248655 41.4191033,9.35672515 C41.4191033,9.83279532 41.4191033,29.145575 41.4191033,30.0662768 Z M47.0331384,37.5516569 C46.0012788,37.5516569 45.1617934,36.7121715 45.1617934,35.6803119 C45.1617934,35.2276959 45.1617934,19.1505965 45.1617934,18.7134503 L58.5285614,18.7134503 L52.9563197,27.1648187 C52.5423782,27.7925926 52.5443743,28.6072515 52.9615595,29.2329045 L58.5073528,37.5516569 L47.0331384,37.5516569 Z" id="Shape"></path>
        </g>
    </g>
</svg>