<?xml version="1.0" encoding="UTF-8"?>
<svg width="64px" height="64px" viewBox="0 0 64 64" version="1.1" xmlns="http://www.w3.org/2000/svg" xmlns:xlink="http://www.w3.org/1999/xlink">
    <g id="Page-1" stroke="none" stroke-width="1" fill="none" fill-rule="evenodd">
        <g id="user-white" fill="#FFFFFF" fill-rule="nonzero">
            <path d="M54.6275,41.3725 C51.142125,37.88725 46.993625,35.307125 42.467375,33.74525 C47.315125,30.406375 50.5,24.8185 50.5,18.5 C50.5,8.299125 42.200875,0 32,0 C21.799125,0 13.5,8.299125 13.5,18.5 C13.5,24.8185 16.684875,30.406375 21.53275,33.74525 C17.0065,35.307125 12.858,37.88725 9.372625,41.3725 C3.328625,47.416625 0,55.4525 0,64 L5,64 C5,49.112125 17.112125,37 32,37 C46.887875,37 59,49.112125 59,64 L64,64 C64,55.4525 60.671375,47.416625 54.6275,41.3725 Z M32,32 C24.556125,32 18.5,25.944 18.5,18.5 C18.5,11.056 24.556125,5 32,5 C39.443875,5 45.5,11.056 45.5,18.5 C45.5,25.944 39.443875,32 32,32 Z" id="Shape"></path>
        </g>
    </g>
</svg>