<?xml version="1.0" encoding="UTF-8"?>
<svg width="64px" height="57px" viewBox="0 0 64 57" version="1.1" xmlns="http://www.w3.org/2000/svg" xmlns:xlink="http://www.w3.org/1999/xlink">
    <g id="Page-1" stroke="none" stroke-width="1" fill="none" fill-rule="evenodd">
        <g id="coin-stack" fill="#4f3b8e" fill-rule="nonzero">
            <path d="M18.5762388,33.007602 C20.3730149,33.007602 22.1097711,32.8915423 23.7532338,32.6755025 L23.7532338,14.6617313 C22.1099303,14.4458507 20.3730149,14.329791 18.5762388,14.329791 C8.31697512,14.329791 0.00015920398,18.1018109 0.00015920398,22.7550249 L0.00015920398,24.582209 C0.00015920398,29.2352637 8.31697512,33.007602 18.5762388,33.007602 Z" id="Shape"></path>
            <path d="M18.5762388,42.4136915 C20.3730149,42.4136915 22.1097711,42.2976318 23.7532338,42.0819104 L23.7532338,36.8017512 C22.1094527,37.0176318 20.3734925,37.1352836 18.5762388,37.1352836 C9.62101493,37.1352836 2.14654726,34.2610149 0.390845771,30.4356617 C0.135164179,30.9928756 0.00015920398,31.5698308 0.00015920398,32.1612736 L0.00015920398,33.9884577 C0.00015920398,38.6416716 8.31697512,42.4136915 18.5762388,42.4136915 Z" id="Shape"></path>
            <path d="M23.7530746,46.6185871 L23.7530746,46.2081592 C22.1092935,46.4240398 20.3733333,46.5416915 18.5760796,46.5416915 C9.62085572,46.5416915 2.14638806,43.6674229 0.390686567,39.8420697 C0.135004975,40.3991244 0,40.9760796 0,41.5675224 L0,43.3947065 C0,48.0480796 8.31681592,51.8200995 18.5760796,51.8200995 C20.6277413,51.8200995 22.6010746,51.6688557 24.446408,51.3902488 C23.9890149,50.454607 23.7530746,49.4678607 23.7530746,48.4456119 L23.7530746,46.6185871 Z" id="Shape"></path>
            <path d="M45.360398,0.0603383085 C35.1011343,0.0603383085 26.7843184,3.83235821 26.7843184,8.48557214 L26.7843184,10.3127562 C26.7843184,14.9659701 35.1011343,18.73799 45.360398,18.73799 C55.6195025,18.73799 63.9364776,14.9659701 63.9364776,10.3127562 L63.9364776,8.48557214 C63.9364776,3.83235821 55.6195025,0.0603383085 45.360398,0.0603383085 Z" id="Shape"></path>
            <path d="M45.360398,22.8658308 C36.4051741,22.8658308 28.9307065,19.9917214 27.175005,16.166209 C26.9193234,16.7232637 26.7843184,17.3002189 26.7843184,17.8918209 L26.7843184,19.719005 C26.7843184,24.3722189 35.1011343,28.1442388 45.360398,28.1442388 C55.6195025,28.1442388 63.9364776,24.3722189 63.9364776,19.719005 L63.9364776,17.8918209 C63.9364776,17.3002189 63.8014726,16.7232637 63.545791,16.166209 C61.7900896,19.9917214 54.3156219,22.8658308 45.360398,22.8658308 Z" id="Shape"></path>
            <path d="M45.360398,32.2722388 C36.4051741,32.2722388 28.9307065,29.3979701 27.175005,25.5726169 C26.9193234,26.1296716 26.7843184,26.7066269 26.7843184,27.2982289 L26.7843184,29.1254129 C26.7843184,33.7787861 35.1011343,37.550806 45.360398,37.550806 C55.6195025,37.550806 63.9364776,33.7787861 63.9364776,29.1254129 L63.9364776,27.2982289 C63.9364776,26.7066269 63.8014726,26.1296716 63.545791,25.5726169 C61.7900896,29.3981294 54.3156219,32.2722388 45.360398,32.2722388 Z" id="Shape"></path>
            <path d="M45.360398,42.1863483 C36.4051741,42.1863483 28.9307065,39.3120796 27.175005,35.4867264 C26.9193234,36.0439403 26.7843184,36.6207363 26.7843184,37.2121791 L26.7843184,39.0395224 C26.7843184,43.6927363 35.1011343,47.4647562 45.360398,47.4647562 C55.6195025,47.4647562 63.9364776,43.6927363 63.9364776,39.0395224 L63.9364776,37.2121791 C63.9364776,36.6207363 63.8014726,36.0436219 63.545791,35.4867264 C61.7900896,39.3119204 54.3156219,42.1863483 45.360398,42.1863483 Z" id="Shape"></path>
            <path d="M45.360398,51.592597 C36.4051741,51.592597 28.9307065,48.7184876 27.175005,44.8931343 C26.9193234,45.4503483 26.7843184,46.0274627 26.7843184,46.6185871 L26.7843184,48.4457711 C26.7843184,53.0989851 35.1011343,56.871005 45.360398,56.871005 C55.6195025,56.871005 63.9364776,53.0989851 63.9364776,48.4457711 L63.9364776,46.6184279 C63.9364776,46.0269851 63.8014726,45.4498706 63.545791,44.8929751 C61.7900896,48.7183284 54.3156219,51.592597 45.360398,51.592597 Z" id="Shape"></path>
        </g>
    </g>
</svg>