<svg xmlns="http://www.w3.org/2000/svg" width="24" height="24" viewBox="0 0 24 24">
  <g fill="none" fill-rule="evenodd">
    <polygon points="0 0 24 0 24 24 0 24"/>
    <polygon points="0 0 24 0 24 24 0 24"/>
    <path fill="#8957D5" d="M20.125,8 L18.375,8 L18.375,15.875 L7,15.875 L7,17.625 C7,18.10625 7.39375,18.5 7.875,18.5 L17.5,18.5 L21,22 L21,8.875 C21,8.39375 20.60625,8 20.125,8 L20.125,8 Z M17,13.3333333 L17,4.93333333 C17,4.42 16.58,4 16.0666667,4 L3.93333333,4 C3.42,4 3,4.42 3,4.93333333 L3,18 L6.73333333,14.2666667 L16.0666667,14.2666667 C16.58,14.2666667 17,13.8466667 17,13.3333333 L17,13.3333333 Z"/>
  </g>
</svg>
