<?xml version="1.0" encoding="iso-8859-1"?>
<svg version="1.1" id="Layer_1" xmlns="http://www.w3.org/2000/svg" xmlns:xlink="http://www.w3.org/1999/xlink" x="0px" y="0px"
	 viewBox="0 0 512 512" style="enable-background:new 0 0 512 512;" opacity="0.1" xml:space="preserve">
<g>
	<path d="M501.801,188.468h-6.835c-6.659-33.785-40.813-93.27-55.933-118.465c7.089-4.876,11.749-13.041,11.749-22.276
		c0-14.9-12.123-27.023-27.023-27.023s-27.022,12.122-27.022,27.023c0,9.235,4.66,17.4,11.75,22.276
		c-15.119,25.195-49.273,84.68-55.932,118.465h-6.834c-5.632,0-10.199,4.566-10.199,10.199c0,48.655,39.584,88.239,88.239,88.239
		c48.655,0,88.239-39.584,88.239-88.239C512,193.034,507.433,188.468,501.801,188.468z M423.76,41.103
		c3.652,0,6.624,2.972,6.624,6.624s-2.972,6.623-6.624,6.623s-6.623-2.971-6.623-6.623S420.107,41.103,423.76,41.103z
			M423.744,84.203c17.259,29.132,43.912,77.658,50.468,104.265H373.34C379.529,163.556,403.51,118.209,423.744,84.203z
			M423.76,266.508c-33.941,0-62.142-25.055-67.076-57.642h134.153C485.902,241.453,457.703,266.508,423.76,266.508z"/>
</g>
<g>
	<path d="M346.782,432.674h-26.964v-25.902c0-5.633-4.567-10.199-10.199-10.199h-25.902V111.67
		c6.671-6.94,10.968-15.585,11.466-25.562l43.126-9.28c5.507-1.185,9.011-6.61,7.826-12.117
		c-1.186-5.507-6.611-9.007-12.117-7.825l-43.227,9.303c-6.485-12.312-19.405-20.731-34.261-20.731
		c-20.573,0-37.441,16.136-38.628,36.416l-107.84,23.206c-4.92-6.729-12.867-11.111-21.822-11.111
		c-14.9,0-27.023,12.122-27.023,27.023c0,9.235,4.66,17.401,11.75,22.276c-15.12,25.195-49.273,84.68-55.932,118.465h-6.834
		C4.566,261.733,0,266.299,0,271.932c0,48.655,39.584,88.239,88.239,88.239c48.655,0,88.239-39.584,88.239-88.239
		c0-5.633-4.566-10.199-10.199-10.199h-6.834c-6.659-33.786-40.813-93.27-55.932-118.465c6.074-4.177,10.36-10.768,11.465-18.379
		l107.141-23.055c1.885,3.654,4.328,6.974,7.225,9.838v284.904h-25.901c-5.633,0-10.199,4.566-10.199,10.199v25.902H166.28
		c-5.633,0-10.199,4.566-10.199,10.199v38.221c0,5.633,4.566,10.199,10.199,10.199h180.502c5.632,0,10.199-4.566,10.199-10.199
		v-38.224C356.981,437.24,352.414,432.674,346.782,432.674z M88.239,114.366c3.652,0,6.624,2.972,6.624,6.624
		s-2.972,6.623-6.624,6.623s-6.624-2.971-6.624-6.623S84.587,114.366,88.239,114.366z M88.239,339.771
		c-33.942,0-62.142-25.055-67.076-57.642h134.152C150.381,314.716,122.181,339.771,88.239,339.771z M138.691,261.731H37.819
		c6.19-24.912,30.171-70.259,50.405-104.265C105.482,186.597,132.135,235.123,138.691,261.731z M256.531,65.854
		c10.093,0,18.303,8.21,18.303,18.303s-8.211,18.303-18.303,18.303s-18.303-8.21-18.303-18.303S246.438,65.854,256.531,65.854z
			M263.32,122.252v274.322h-13.578V122.251c2.206,0.393,4.472,0.609,6.79,0.609S261.114,122.643,263.32,122.252z M213.641,416.971
		h85.779v15.703h-85.779V416.971z M336.583,470.897H176.479v-17.825h160.104V470.897z"/>
</g>
<g>
	<path d="M385.42,56.888c-1.185-5.507-6.611-9.01-12.118-7.825l-7.432,1.599c-5.506,1.185-9.01,6.61-7.825,12.117
		c1.031,4.784,5.259,8.055,9.962,8.055c0.711,0,1.433-0.074,2.156-0.23l7.432-1.599C383.1,67.82,386.605,62.395,385.42,56.888z"/>
</g>
</svg>
