<?xml version="1.0" encoding="iso-8859-1"?>
<!-- Generator: Adobe Illustrator 19.0.0, SVG Export Plug-In . SVG Version: 6.00 Build 0)  -->
<svg xmlns="http://www.w3.org/2000/svg" xmlns:xlink="http://www.w3.org/1999/xlink" version="1.1" id="Capa_1" x="0px" y="0px" viewBox="0 0 480.005 480.005" style="enable-background:new 0 0 480.005 480.005;" xml:space="preserve" width="512px" height="512px">
<g>
	<g>
		<path d="M89.241,386.347c-12.738-0.904-23.796,8.69-24.7,21.428c-0.904,12.738,8.69,23.796,21.428,24.7    c0.56,0.04,1.12,0.056,1.672,0.056c12.769-0.005,23.116-10.359,23.112-23.128C110.748,397.261,101.353,387.191,89.241,386.347z     M94.739,409.863c-0.001,0.009-0.001,0.018-0.002,0.027l-0.032,0.024c-0.117,1.882-0.981,3.639-2.4,4.88    c-1.416,1.254-3.283,1.875-5.168,1.72c-3.923-0.263-6.891-3.657-6.627-7.581c0.251-3.746,3.369-6.654,7.123-6.643h0.504    C92.051,402.559,95.007,405.949,94.739,409.863z" fill="#FFFFFF"/>
	</g>
</g>
<g>
	<g>
		<path d="M345.241,386.347c-12.738-0.904-23.796,8.69-24.7,21.428c-0.904,12.738,8.69,23.796,21.428,24.7    c0.56,0.04,1.12,0.056,1.672,0.056c12.769-0.005,23.116-10.359,23.112-23.128C366.748,397.261,357.353,387.191,345.241,386.347z     M350.739,409.863c-0.001,0.009-0.001,0.018-0.002,0.027l-0.032,0.024c-0.117,1.882-0.981,3.639-2.4,4.88    c-1.414,1.257-3.282,1.879-5.168,1.72c-3.923-0.263-6.891-3.657-6.627-7.581c0.251-3.746,3.369-6.654,7.123-6.643h0.504    C348.051,402.559,351.007,405.949,350.739,409.863z" fill="#FFFFFF"/>
	</g>
</g>
<g>
	<g>
		<path d="M224.001,336.011h-32c-4.418,0-8,3.582-8,8s3.582,8,8,8h32c4.418,0,8-3.582,8-8S228.419,336.011,224.001,336.011z" fill="#FFFFFF"/>
	</g>
</g>
<g>
	<g>
		<path d="M52.801,49.611c-1.385-1.039-3.069-1.6-4.8-1.6h-8l14.4-19.2c2.651-3.535,1.935-8.549-1.6-11.2    c-3.535-2.651-8.549-1.935-11.2,1.6l-24,32c-2.651,3.535-1.935,8.549,1.6,11.2c1.385,1.039,3.069,1.6,4.8,1.6h8l-14.4,19.2    c-2.652,3.533-1.938,8.548,1.595,11.201c3.533,2.653,8.548,1.938,11.201-1.595c0.001-0.002,0.003-0.004,0.004-0.006l24-32    C57.052,57.276,56.335,52.262,52.801,49.611z" fill="#FFFFFF"/>
	</g>
</g>
<g>
	<g>
		<path d="M454.055,192.009c-23.49-30.319-59.701-48.045-98.055-47.999h-196.64c-3.973-27.527-27.547-47.967-55.36-48h-48    c-4.418,0-8,3.582-8,8v16h-48v16h48v32h-48v16h48v16c0,4.418,3.582,8,8,8h48c27.813-0.033,51.387-20.473,55.36-48h196.64    c59.549-0.1,107.905,48.094,108.004,107.644c0.048,28.866-11.48,56.546-32.004,76.844v-16.488c0-2.122-0.844-4.156-2.344-5.656    l-12.16-12.16c-42.637-42.857-99.991-67.875-160.408-69.968c-0.357-0.097-0.721-0.169-1.088-0.216    c-0.289,0.039-0.575,0.097-0.856,0.176c-2.4-0.072-4.712-0.176-7.08-0.176c-58.691-0.021-115.345,21.516-159.2,60.52l-4.856,4.32    l-44.096,13.232c-23.758,7.007-40.026,28.871-39.912,53.64v36.288c0,4.418,3.582,8,8,8h24.64    c4.391,30.574,32.736,51.8,63.311,47.409c24.574-3.529,43.88-22.836,47.409-47.409h145.28c4.391,30.574,32.736,51.8,63.311,47.409    c24.574-3.529,43.88-22.836,47.409-47.409h24.64c4.418,0,8-3.582,8-8v-42.248C486.072,323.872,495.946,246.08,454.055,192.009z     M104.001,192.011h-40v-80h40c22.091,0,40,17.909,40,40S126.092,192.011,104.001,192.011z M88.001,448.011    c-22.091,0-40-17.909-40-40c0-22.091,17.909-40,40-40s40,17.909,40,40C127.974,430.091,110.081,447.984,88.001,448.011z     M248.001,400.011H143.433c-0.088-0.616-0.24-1.208-0.352-1.816c-0.136-0.8-0.264-1.528-0.432-2.28    c-0.224-1.008-0.496-2-0.8-2.984c-0.2-0.712-0.384-1.432-0.616-2.128c-0.328-1.024-0.72-2.024-1.104-3.024    c-0.248-0.632-0.464-1.272-0.736-1.888c-0.48-1.12-1.024-2.2-1.6-3.28c-0.24-0.464-0.448-0.952-0.696-1.408    c-0.8-1.504-1.72-2.976-2.68-4.4c-0.24-0.352-0.512-0.68-0.8-1.024c-0.744-1.064-1.504-2.112-2.32-3.112    c-0.416-0.504-0.864-0.976-1.296-1.464c-0.704-0.8-1.408-1.6-2.152-2.4c-0.496-0.512-1.024-0.992-1.544-1.48    c-0.736-0.688-1.472-1.376-2.24-2.032c-0.56-0.48-1.144-0.928-1.728-1.384c-0.8-0.608-1.56-1.2-2.4-1.768    c-0.616-0.432-1.24-0.848-1.88-1.256c-0.8-0.528-1.656-1.032-2.504-1.52c-0.656-0.376-1.328-0.744-2-1.096    c-0.872-0.448-1.768-0.872-2.664-1.28c-0.688-0.312-1.376-0.624-2.072-0.904c-0.944-0.384-1.904-0.72-2.864-1.056    c-0.704-0.232-1.392-0.488-2.104-0.696c-1.024-0.304-2.064-0.552-3.104-0.8c-0.688-0.16-1.36-0.344-2.056-0.48    c-1.168-0.232-2.36-0.392-3.56-0.544c-0.592-0.08-1.176-0.192-1.776-0.248c-1.672-0.144-3.504-0.248-5.352-0.248    s-3.68,0.104-5.48,0.28c-0.6,0.056-1.184,0.168-1.776,0.248c-1.2,0.152-2.4,0.312-3.56,0.544c-0.696,0.136-1.368,0.32-2.056,0.48    c-1.04,0.248-2.08,0.496-3.104,0.8c-0.712,0.208-1.4,0.464-2.104,0.696c-0.96,0.336-1.92,0.672-2.864,1.056    c-0.696,0.28-1.384,0.592-2.072,0.904c-0.896,0.408-1.792,0.8-2.664,1.28c-0.672,0.352-1.344,0.72-2,1.096    c-0.848,0.488-1.688,0.992-2.504,1.52c-0.64,0.408-1.264,0.8-1.88,1.256c-0.8,0.568-1.6,1.16-2.4,1.768    c-0.584,0.456-1.168,0.904-1.728,1.384c-0.8,0.656-1.504,1.344-2.24,2.032c-0.52,0.488-1.048,0.968-1.544,1.48    c-0.744,0.76-1.448,1.6-2.152,2.4c-0.432,0.488-0.88,0.96-1.296,1.464c-0.8,1-1.6,2.048-2.32,3.112    c-0.248,0.344-0.52,0.672-0.76,1.024c-0.96,1.424-1.848,2.896-2.68,4.4c-0.248,0.456-0.456,0.944-0.696,1.408    c-0.552,1.08-1.096,2.16-1.6,3.28c-0.272,0.616-0.488,1.256-0.736,1.888c-0.384,1-0.8,2-1.104,3.024    c-0.232,0.696-0.416,1.416-0.616,2.128c-0.272,0.984-0.544,1.976-0.8,2.984c-0.168,0.752-0.296,1.52-0.432,2.28    c-0.112,0.608-0.264,1.2-0.352,1.816h-16.48v-28.32c-0.082-17.69,11.536-33.307,28.504-38.312l44.68-13.4h158.816V400.011z     M248.001,304.011H109.713c39.393-31.084,88.108-47.993,138.288-48V304.011z M264.001,256.635    c34.584,2.358,68.134,12.795,97.952,30.472l-28.168,16.904h-69.784V256.635z M344.001,448.011c-22.091,0-40-17.909-40-40    c0-22.091,17.909-40,40-40c22.091,0,40,17.909,40,40C383.974,430.091,366.081,447.984,344.001,448.011z M416.001,400.011h-16.568    c-0.088-0.616-0.24-1.208-0.352-1.816c-0.136-0.8-0.264-1.528-0.432-2.28c-0.224-1.008-0.496-2-0.8-2.984    c-0.2-0.712-0.384-1.432-0.616-2.128c-0.328-1.024-0.72-2.024-1.104-3.024c-0.248-0.632-0.464-1.272-0.736-1.888    c-0.48-1.12-1.024-2.2-1.6-3.28c-0.24-0.464-0.448-0.952-0.696-1.408c-0.8-1.504-1.72-2.976-2.68-4.4    c-0.24-0.352-0.512-0.68-0.76-1.024c-0.744-1.064-1.504-2.112-2.32-3.112c-0.416-0.504-0.864-0.976-1.296-1.464    c-0.704-0.8-1.408-1.6-2.152-2.4c-0.496-0.512-1.024-0.992-1.544-1.48c-0.736-0.688-1.472-1.376-2.24-2.032    c-0.56-0.48-1.144-0.928-1.728-1.384c-0.8-0.608-1.6-1.2-2.4-1.768c-0.616-0.432-1.24-0.848-1.88-1.256    c-0.8-0.528-1.656-1.032-2.504-1.52c-0.656-0.376-1.328-0.744-2-1.096c-0.872-0.448-1.768-0.872-2.664-1.28    c-0.688-0.312-1.376-0.624-2.072-0.904c-0.944-0.384-1.904-0.72-2.864-1.056c-0.704-0.232-1.392-0.488-2.104-0.696    c-1.024-0.304-2.064-0.552-3.104-0.8c-0.688-0.16-1.36-0.344-2.056-0.48c-1.168-0.232-2.36-0.392-3.56-0.544    c-0.592-0.08-1.176-0.192-1.776-0.248c-1.712-0.144-3.544-0.248-5.392-0.248c-1.848,0-3.68,0.104-5.48,0.28    c-0.6,0.056-1.184,0.168-1.776,0.248c-1.2,0.152-2.4,0.312-3.56,0.544c-0.696,0.136-1.368,0.32-2.056,0.48    c-1.04,0.248-2.08,0.496-3.104,0.8c-0.712,0.208-1.4,0.464-2.104,0.696c-0.96,0.336-1.92,0.672-2.864,1.056    c-0.696,0.28-1.384,0.592-2.072,0.904c-0.896,0.408-1.792,0.8-2.664,1.28c-0.672,0.352-1.344,0.72-2,1.096    c-0.848,0.488-1.688,0.992-2.504,1.52c-0.64,0.408-1.264,0.8-1.88,1.256c-0.8,0.568-1.6,1.16-2.4,1.768    c-0.584,0.456-1.168,0.904-1.728,1.384c-0.8,0.656-1.504,1.344-2.24,2.032c-0.52,0.488-1.048,0.968-1.544,1.48    c-0.744,0.76-1.448,1.6-2.152,2.4c-0.432,0.488-0.88,0.96-1.296,1.464c-0.8,1-1.6,2.048-2.32,3.112    c-0.248,0.344-0.52,0.672-0.76,1.024c-0.96,1.424-1.848,2.896-2.68,4.4c-0.248,0.456-0.456,0.944-0.696,1.408    c-0.552,1.08-1.096,2.16-1.6,3.28c-0.272,0.616-0.488,1.256-0.736,1.888c-0.384,1-0.8,2-1.104,3.024    c-0.232,0.696-0.416,1.416-0.616,2.128c-0.272,0.984-0.544,1.976-0.8,2.984c-0.168,0.752-0.296,1.52-0.432,2.28    c-0.112,0.608-0.264,1.2-0.352,1.816h-24.48v-80.032h72c1.452,0,2.876-0.396,4.12-1.144l36.728-22.056    c10.461,7.377,20.275,15.631,29.336,24.672l9.816,9.84V400.011z" fill="#FFFFFF"/>
	</g>
</g>
<g>
</g>
<g>
</g>
<g>
</g>
<g>
</g>
<g>
</g>
<g>
</g>
<g>
</g>
<g>
</g>
<g>
</g>
<g>
</g>
<g>
</g>
<g>
</g>
<g>
</g>
<g>
</g>
<g>
</g>
</svg>
