<?xml version="1.0" encoding="iso-8859-1"?>
<!-- Generator: Adobe Illustrator 19.0.0, SVG Export Plug-In . SVG Version: 6.00 Build 0)  -->
<svg xmlns="http://www.w3.org/2000/svg" xmlns:xlink="http://www.w3.org/1999/xlink" version="1.1" id="Capa_1" x="0px" y="0px" viewBox="0 0 511.999 511.999" style="enable-background:new 0 0 511.999 511.999;" xml:space="preserve" width="512px" height="512px">
<g>
	<g>
		<path d="M507.5,42.398c-3.067-3.067-7.31-4.7-11.637-4.476c-12.638,0.642-124.955,7.739-176.003,58.787    c-38.788,38.788-47.46,92.882-23.448,130.775c-18.481,18.033-32.86,39.457-42.502,62.905c-2.679-5.503-5.85-10.702-9.508-15.564    c-5.792-7.696-12.581-14.392-20.229-20.052c3.968-16.998,1.637-35.056-6.908-51.994c-10.272-20.365-28.702-37.093-51.897-47.105    c-24.035-10.376-56.871-12.259-97.591-5.588c-30.215,4.948-54.704,13.108-57.402,14.024c-4.087,1.39-7.414,4.458-9.125,8.421    s-1.666,8.488,0.129,12.428c1.182,2.588,12.043,26.012,29.159,51.387c23.075,34.208,46.963,56.815,70.998,67.192    c14.027,6.055,28.513,8.922,42.433,8.922c26.914,0,51.689-10.732,66.847-29.871c3.506,3.09,6.7,6.536,9.551,10.323    c5.888,7.824,9.984,17.028,12.176,27.355l7.394,34.848c-0.081,2.262-0.136,4.528-0.136,6.8v97.146    c0,8.305,6.733,15.038,15.038,15.038c8.305,0,15.038-6.733,15.038-15.038v-97.146c0-42.519,16.971-82.789,46.963-112.353    c15.107,11.254,33.57,16.796,52.865,16.796c28.84,0,59.508-12.339,83.485-36.316c51.064-51.064,58.147-163.365,58.786-175.997    C512.201,49.711,510.567,45.465,507.5,42.398z M192.535,255.068c-0.003,0.007-0.006,0.015-0.009,0.022    c-0.002,0.004-0.003,0.009-0.005,0.013c-11.024,25.54-46.494,34.878-79.063,20.818c-31.217-13.476-60.819-57.559-77.168-88.263    c33.563-9.162,85.939-17.849,117.158-4.372c16.734,7.223,29.861,18.956,36.963,33.037    C196.955,229.297,197.708,243.055,192.535,255.068z M431.926,208.774c-31.584,31.586-77.647,36.917-102.682,11.883    c-25.458-25.458-20.238-70.56,11.883-102.681C375.11,83.993,447.57,72.781,480.556,69.348    C477.128,102.325,465.92,174.779,431.926,208.774z" fill="#FFFFFF"/>
	</g>
</g>
<g>
	<g>
		<path d="M436.587,113.313c-5.872-5.872-15.394-5.872-21.267,0l-56.727,56.728c-5.873,5.872-5.873,15.394,0,21.267    c2.937,2.937,6.785,4.405,10.634,4.405s7.698-1.469,10.633-4.405l56.727-56.728C442.46,128.708,442.46,119.186,436.587,113.313z" fill="#FFFFFF"/>
	</g>
</g>
<g>
	<g>
		<path d="M157.976,223.809l-60.87-26.276c-7.623-3.291-16.475,0.222-19.766,7.846c-3.291,7.625,0.222,16.476,7.847,19.768    l60.87,26.276c1.942,0.838,3.964,1.235,5.953,1.235c5.82,0,11.361-3.4,13.814-9.082    C169.114,235.95,165.601,227.101,157.976,223.809z" fill="#FFFFFF"/>
	</g>
</g>

</svg>
