<svg height="480pt" viewBox="0 -24 480 480" width="480pt" xmlns="http://www.w3.org/2000/svg"><path d="m448 261.769531v-53.769531c0-114.875-93.125-208-208-208s-208 93.125-208 208v53.742188c-19.542969 9.375-31.984375 29.121093-32 50.792968v46.929688c.0351562 31.207031 25.328125 56.5 56.535156 56.535156h40.945313c3.375 9.550781 12.386719 15.953125 22.519531 16h16c13.242188-.035156 23.964844-10.757812 24-24v-144c-.035156-13.242188-10.757812-23.964844-24-24h-16c-10.144531.03125-19.171875 6.4375-22.550781 16h-17.449219v-48c0-88.367188 71.632812-160 160-160s160 71.632812 160 160v48h-17.441406c-3.316406-9.542969-12.292969-15.957031-22.398438-16h-16.289062c-13.175782.011719-23.851563 10.6875-23.871094 23.863281v144.265625c.011719 13.175782 10.6875 23.851563 23.863281 23.871094h16.265625c10.101563-.042969 19.082032-6.457031 22.398438-16h40.90625c31.21875-.019531 56.53125-25.3125 56.566406-56.535156v-46.929688c-.085938-21.648437-12.507812-41.351562-32-50.765625zm-336 2.230469c0-4.417969 3.582031-8 8-8h16c4.417969 0 8 3.582031 8 8v144c0 4.417969-3.582031 8-8 8h-16c-4.417969 0-8-3.582031-8-8zm256 0v144.136719c-.003906 4.34375-3.527344 7.863281-7.871094 7.863281h-16.265625c-4.34375-.003906-7.863281-3.527344-7.863281-7.871094v-144.265625c.003906-4.34375 3.527344-7.863281 7.871094-7.863281h16.265625c4.34375.003906 7.863281 3.527344 7.863281 7.871094zm-272 8v128h-39.464844c-22.375-.027344-40.507812-18.160156-40.535156-40.535156v-46.929688c.007812-12.632812 5.929688-24.539062 16-32.167968v55.632812c0 13.253906 10.746094 24 24 24s24-10.746094 24-24v-64zm144-240c-97.15625.109375-175.890625 78.84375-176 176v128c0 4.417969-3.582031 8-8 8s-8-3.582031-8-8v-128c0-106.039062 85.960938-192 192-192s192 85.960938 192 192v128c0 4.417969-3.582031 8-8 8s-8-3.582031-8-8v-128c-.109375-97.15625-78.84375-175.890625-176-176zm224 327.464844c-.027344 22.375-18.160156 40.507812-40.535156 40.535156h-39.464844v-128h16v64c0 13.253906 10.746094 24 24 24s24-10.746094 24-24v-55.703125c10.058594 7.671875 15.96875 19.589844 16 32.238281zm0 0"/><path d="m213.3125 213.976562 18.6875-16.609374v58.632812c0 3.234375 1.949219 6.152344 4.9375 7.390625.96875.40625 2.011719.613281 3.0625.609375 2.121094 0 4.15625-.84375 5.65625-2.34375l40-40c1.554688-1.558594 2.402344-3.6875 2.335938-5.890625-.066407-2.199219-1.035157-4.277344-2.679688-5.742187l-33.777344-30.023438 33.777344-30.023438c1.644531-1.464843 2.613281-3.542968 2.679688-5.742187.066406-2.203125-.78125-4.332031-2.335938-5.890625l-40-40c-2.289062-2.285156-5.730469-2.972656-8.71875-1.734375s-4.9375 4.15625-4.9375 7.390625v58.632812l-18.6875-16.609374-10.625 11.953124 24.800781 22.023438-24.800781 22.023438zm34.6875-90.664062 20.34375 20.34375-20.34375 18.085938zm0 74.945312 20.34375 18.085938-20.34375 20.34375zm0 0"/></svg>