<svg xmlns="http://www.w3.org/2000/svg" width="24" height="24" viewBox="0 0 24 24">
  <g fill="none" fill-rule="evenodd">
    <polygon points="0 0 24 0 24 24 0 24"/>
    <polygon points="0 0 24 0 24 24 0 24"/>
    <polygon points="0 0 24 0 24 24 0 24"/>
    <path fill="#8957D5" d="M21,19 L21,15.5 L3,15.5 L3,19 L21,19 Z M19.6,16.375 L19.6,18.125 L17.8,18.125 L17.8,16.375 L19.6,16.375 Z M3,8.5 L21,8.5 L21,5 L3,5 L3,8.5 Z M17.8,7.625 L17.8,5.875 L19.6,5.875 L19.6,7.625 L17.8,7.625 Z M21,13.75 L21,10.25 L3,10.25 L3,13.75 L21,13.75 Z M19.6,11.125 L19.6,12.875 L17.8,12.875 L17.8,11.125 L19.6,11.125 Z"/>
  </g>
</svg>
