<?xml version="1.0" encoding="iso-8859-1"?>
<!-- Generator: Adobe Illustrator 18.0.0, SVG Export Plug-In . SVG Version: 6.00 Build 0)  -->
<!DOCTYPE svg PUBLIC "-//W3C//DTD SVG 1.1//EN" "http://www.w3.org/Graphics/SVG/1.1/DTD/svg11.dtd">
<svg xmlns="http://www.w3.org/2000/svg" xmlns:xlink="http://www.w3.org/1999/xlink" version="1.1" id="Capa_1" x="0px" y="0px" viewBox="0 0 59.998 59.998" style="enable-background:new 0 0 59.998 59.998;" xml:space="preserve" width="512px" height="512px">
<g>
	<path d="M16.586,10.028c0.407,1.178,1.504,1.97,2.73,1.97h7.431c1.226,0,2.323-0.792,2.73-1.97   c0.388-1.126,1.607-3.645,2.553-4.445c0.829-0.703,1.218-1.792,1.014-2.842c-0.2-1.033-0.921-1.849-1.928-2.182   c-3.001-0.995-5.663-0.66-7.698,0.967c-0.365,0.292-0.855,0.292-1.22,0C20.163-0.1,17.503-0.435,14.5,0.56   c-1.007,0.333-1.729,1.148-1.929,2.182c-0.204,1.05,0.185,2.139,1.014,2.842C14.656,6.49,16.296,9.188,16.586,10.028z    M14.535,3.123c0.036-0.187,0.162-0.521,0.594-0.664c0.93-0.308,1.797-0.461,2.599-0.461c1.234,0,2.312,0.364,3.221,1.091   c1.095,0.877,2.625,0.875,3.718,0c1.501-1.2,3.458-1.412,5.82-0.63c0.432,0.143,0.557,0.478,0.593,0.664   c0.067,0.347-0.061,0.696-0.343,0.935c-1.528,1.294-2.894,4.576-3.15,5.319c-0.128,0.372-0.466,0.622-0.839,0.622h-7.431   c-0.374,0-0.711-0.25-0.839-0.622c-0.417-1.208-2.272-4.194-3.599-5.319C14.596,3.818,14.467,3.469,14.535,3.123z" fill="#FFFFFF"/>
	<path d="M31.532,13.998c0-0.552-0.448-1-1-1c-0.186,0-0.351,0.065-0.5,0.153c-0.149-0.089-0.314-0.153-0.5-0.153h-12   c-0.552,0-1,0.448-1,1s0.448,1,1,1h12v1h-11c-0.552,0-1,0.448-1,1s0.448,1,1,1h11.925c0.896,0.746,2,1.173,3.179,1.173   c1.335,0,2.591-0.521,3.536-1.466c0.391-0.391,0.391-1.023,0-1.414c-0.391-0.391-1.023-0.391-1.414,0   c-1.13,1.13-3.088,1.133-4.226,0.014V13.998z" fill="#FFFFFF"/>
	<path d="M21.532,25.998c-6.411,0-14,8.131-14,15c0,0.552,0.448,1,1,1s1-0.448,1-1c0-5.71,6.729-13,12-13c0.552,0,1-0.448,1-1   S22.084,25.998,21.532,25.998z" fill="#FFFFFF"/>
	<path d="M49.532,31.998c-1.031,0-2.259,0.06-3.497,0.201c-1.347-2.466-3.123-4.587-5.365-6.304L33.468,21   c-1.191-0.914-3.068-2.002-5.246-2.002h-7.777c-1.924,0-3.816,0.655-5.3,1.822l-7.078,5.157c-7.377,5.8-9.712,15.964-5.551,24.168   c1.514,2.985,4.043,6.592,7.501,6.826c0.271,0.018,0.545,0.028,0.821,0.028h19.459c1.468,1.826,3.715,3,6.235,3   c2.898,0,5.434-1.555,6.838-3.869c1.787,0.555,3.978,0.869,6.162,0.869c4.809,0,10-1.529,10-4v-5.5h-0.079   c0.048-0.162,0.079-0.328,0.079-0.5v-6v-5.5C59.532,32.735,53.246,31.998,49.532,31.998z M57.456,35.489   c-0.021,0.021-0.038,0.042-0.067,0.065c-0.039,0.031-0.086,0.064-0.139,0.098c-0.066,0.042-0.146,0.086-0.233,0.13   c-0.071,0.036-0.145,0.073-0.23,0.11c-0.105,0.047-0.229,0.094-0.356,0.142c-0.102,0.038-0.205,0.076-0.321,0.115   c-0.146,0.048-0.314,0.096-0.483,0.143c-0.132,0.037-0.262,0.075-0.408,0.111c-0.19,0.047-0.404,0.09-0.617,0.133   c-0.161,0.033-0.314,0.067-0.488,0.098c-0.24,0.042-0.508,0.078-0.773,0.114c-0.181,0.025-0.35,0.053-0.543,0.075   c-0.315,0.036-0.662,0.061-1.008,0.086c-0.176,0.013-0.336,0.031-0.52,0.042c-0.546,0.03-1.124,0.048-1.741,0.048   s-1.195-0.018-1.741-0.048c-0.184-0.01-0.344-0.028-0.52-0.042c-0.346-0.026-0.693-0.051-1.008-0.086   c-0.193-0.022-0.362-0.05-0.543-0.075c-0.265-0.036-0.533-0.072-0.773-0.114c-0.174-0.031-0.327-0.065-0.488-0.098   c-0.213-0.044-0.427-0.087-0.617-0.133c-0.146-0.036-0.275-0.073-0.408-0.111c-0.169-0.047-0.336-0.095-0.483-0.143   c-0.116-0.038-0.219-0.077-0.321-0.115c-0.127-0.048-0.251-0.095-0.356-0.142c-0.085-0.037-0.159-0.074-0.23-0.11   c-0.087-0.045-0.167-0.089-0.233-0.13c-0.053-0.034-0.1-0.066-0.139-0.098c-0.027-0.021-0.042-0.04-0.062-0.06   c0.012-0.01,0.02-0.02,0.034-0.031c0.037-0.031,0.09-0.066,0.142-0.1c0.081-0.053,0.182-0.109,0.301-0.169   c0.065-0.033,0.129-0.065,0.205-0.098c0.079-0.035,0.17-0.07,0.261-0.106c0.108-0.042,0.226-0.084,0.351-0.126   c0.09-0.03,0.177-0.061,0.277-0.091c0.224-0.068,0.469-0.135,0.738-0.2c0.124-0.03,0.268-0.057,0.403-0.085   c0.163-0.035,0.33-0.069,0.507-0.101c0.195-0.035,0.402-0.068,0.616-0.1c1.127-0.17,2.476-0.288,4.085-0.288   C54.253,33.998,56.896,34.973,57.456,35.489z M42.207,43.716c0.09,0.038,0.183,0.074,0.277,0.111   c0.174,0.068,0.352,0.132,0.536,0.195c0.097,0.033,0.192,0.065,0.291,0.096c0.211,0.066,0.428,0.127,0.65,0.186   c0.078,0.021,0.153,0.044,0.232,0.063c0.303,0.076,0.613,0.146,0.931,0.208c0.066,0.013,0.135,0.023,0.202,0.036   c0.255,0.048,0.513,0.092,0.775,0.131c0.112,0.017,0.225,0.031,0.338,0.046c0.225,0.03,0.451,0.057,0.68,0.081   c0.12,0.012,0.24,0.024,0.36,0.035c0.236,0.021,0.473,0.037,0.711,0.051c0.106,0.006,0.212,0.014,0.318,0.019   c0.342,0.015,0.683,0.025,1.023,0.025c0.34,0,0.681-0.01,1.023-0.025c0.108-0.005,0.216-0.013,0.324-0.019   c0.235-0.014,0.47-0.03,0.704-0.05c0.123-0.011,0.246-0.023,0.368-0.036c0.225-0.023,0.448-0.05,0.67-0.08   c0.116-0.015,0.232-0.03,0.347-0.047c0.258-0.038,0.512-0.082,0.763-0.129c0.071-0.013,0.143-0.024,0.214-0.038   c0.316-0.063,0.625-0.132,0.926-0.207c0.084-0.021,0.164-0.045,0.247-0.067c0.217-0.058,0.43-0.118,0.636-0.183   c0.101-0.032,0.198-0.065,0.296-0.098c0.183-0.062,0.361-0.127,0.534-0.194c0.093-0.036,0.186-0.073,0.276-0.111   c0.18-0.076,0.351-0.156,0.516-0.238c0.052-0.026,0.111-0.048,0.161-0.074l0.006,3.524c-0.235,0.569-2.819,1.837-6.896,2.04   c-0.366,0.013-0.72,0.031-1.115,0.031c-2.203,0-4.379-0.338-6.041-0.932c-0.006-0.01-0.013-0.02-0.019-0.03   c-0.118-0.206-0.243-0.407-0.378-0.601c-0.02-0.029-0.043-0.056-0.064-0.085c-0.125-0.175-0.254-0.346-0.393-0.51   c-0.042-0.049-0.087-0.094-0.13-0.143c-0.123-0.139-0.247-0.276-0.379-0.406c-0.068-0.067-0.141-0.127-0.211-0.192   c-0.116-0.106-0.23-0.212-0.351-0.311c-0.012-0.01-0.022-0.021-0.034-0.03c0-0.391,0.001-1.26,0.002-2.353   c0.051,0.027,0.112,0.05,0.164,0.076C41.862,43.562,42.03,43.641,42.207,43.716z M28.996,54.998H10.838   c-0.231,0-0.461-0.008-0.688-0.023c-1.965-0.133-4.043-2.17-5.851-5.735c-3.731-7.356-1.626-16.479,4.974-21.669l7.078-5.157   c1.162-0.913,2.616-1.416,4.093-1.416h7.777c1.617,0,3.083,0.864,4.076,1.623l7.202,4.894c1.789,1.372,3.28,3.05,4.445,5.001   c-1.266,0.261-2.49,0.659-3.331,1.243c-0.023,0.016-0.046,0.032-0.069,0.048c-0.127,0.092-0.243,0.189-0.349,0.291   c-0.045,0.043-0.085,0.087-0.126,0.132c-0.079,0.087-0.155,0.175-0.217,0.269c-0.052,0.077-0.09,0.16-0.13,0.242   c-0.035,0.074-0.077,0.145-0.102,0.223c-0.055,0.169-0.089,0.346-0.089,0.534v5.5v3.589c-0.337-0.137-0.686-0.247-1.044-0.337   c-0.047-0.012-0.094-0.025-0.141-0.036c-0.35-0.082-0.707-0.144-1.072-0.178c-0.041-0.004-0.082-0.003-0.123-0.006   c-0.205-0.016-0.411-0.031-0.62-0.031c-0.11,0-0.216,0.012-0.325,0.016c-0.085,0.003-0.17,0.007-0.255,0.013   c-0.356,0.026-0.708,0.067-1.05,0.138c-0.007,0.001-0.013,0.001-0.02,0.003c-0.027,0.006-0.052,0.017-0.079,0.023   c-0.313,0.069-0.618,0.16-0.916,0.266c-0.108,0.038-0.216,0.076-0.322,0.118c-0.297,0.119-0.587,0.251-0.866,0.404   c-0.105,0.057-0.203,0.123-0.305,0.185c-0.195,0.119-0.385,0.244-0.568,0.379c-0.108,0.079-0.217,0.156-0.321,0.24   c-0.235,0.19-0.459,0.393-0.671,0.609c-0.093,0.094-0.178,0.194-0.266,0.293c-0.15,0.168-0.293,0.343-0.428,0.523   c-0.073,0.098-0.15,0.191-0.219,0.292c-0.176,0.257-0.333,0.527-0.478,0.804c-0.056,0.108-0.107,0.218-0.159,0.329   c-0.114,0.245-0.216,0.495-0.305,0.753c-0.026,0.075-0.058,0.146-0.081,0.222c-0.103,0.328-0.178,0.668-0.238,1.012   c-0.008,0.044-0.024,0.086-0.031,0.13c-0.008,0.054-0.008,0.112-0.015,0.166c-0.032,0.235-0.052,0.473-0.063,0.714   c-0.004,0.086-0.012,0.171-0.013,0.258c0,0.037-0.006,0.073-0.006,0.11c0,0.159,0.015,0.314,0.024,0.47   C28.594,53.333,28.735,54.201,28.996,54.998z M36.532,57.998c-3.285,0-5.958-2.654-5.996-5.929c0-0.078,0.002-0.155,0.005-0.233   c0.003-0.11,0.008-0.219,0.017-0.328c0.007-0.092,0.018-0.183,0.029-0.274c0.012-0.093,0.026-0.185,0.042-0.276   c0.045-0.26,0.103-0.517,0.182-0.766c0.008-0.027,0.02-0.052,0.029-0.078c0.084-0.251,0.185-0.496,0.302-0.733   c0.011-0.023,0.022-0.046,0.033-0.068c0.539-1.058,1.39-1.952,2.421-2.541c0.004-0.002,0.007-0.005,0.011-0.007   c0.234-0.133,0.48-0.245,0.73-0.345c0.065-0.026,0.131-0.049,0.196-0.072c0.222-0.079,0.448-0.148,0.681-0.199   c0.032-0.007,0.062-0.018,0.094-0.024c0.289-0.059,0.579-0.091,0.868-0.108c0.055-0.003,0.11-0.007,0.166-0.008   c0.295-0.009,0.589-0.001,0.879,0.033c0.017,0.002,0.033,0.005,0.049,0.008c0.306,0.038,0.609,0.099,0.907,0.185   c0.004,0.001,0.009,0.002,0.013,0.003c0.307,0.089,0.608,0.204,0.902,0.343c0.27,0.128,0.533,0.271,0.779,0.436l0.04,0.028   c0.035,0.024,0.067,0.051,0.101,0.075c0.166,0.119,0.325,0.245,0.478,0.38c0.037,0.032,0.073,0.066,0.109,0.099   c0.153,0.142,0.299,0.29,0.436,0.446c0.014,0.016,0.028,0.03,0.042,0.046c0.318,0.37,0.592,0.779,0.812,1.218   c0.051,0.1,0.102,0.201,0.147,0.304c0.076,0.175,0.142,0.352,0.201,0.531c0.004,0.013,0.01,0.026,0.014,0.039   c0.058,0.181,0.105,0.365,0.145,0.55c0.003,0.015,0.008,0.029,0.011,0.043c0.038,0.184,0.066,0.37,0.087,0.557   c0.002,0.017,0.006,0.032,0.008,0.049c0.021,0.204,0.032,0.409,0.032,0.616c0,0.212-0.012,0.423-0.034,0.633   c-0.003,0.031-0.01,0.06-0.014,0.091c-0.022,0.181-0.049,0.361-0.088,0.538c-0.004,0.02-0.011,0.039-0.015,0.059   c-0.043,0.19-0.094,0.378-0.156,0.564c-0.003,0.008-0.006,0.016-0.009,0.024c-0.066,0.194-0.142,0.385-0.228,0.574   C41.041,56.552,38.954,57.998,36.532,57.998z M49.532,54.998c-1.898,0-3.787-0.253-5.339-0.706   c0.001-0.002,0.001-0.004,0.001-0.006c0.097-0.324,0.168-0.658,0.224-0.998c0.013-0.081,0.026-0.161,0.037-0.243   c0.045-0.344,0.077-0.691,0.077-1.047c0-0.259-0.014-0.516-0.039-0.771c-0.009-0.092-0.025-0.181-0.037-0.272   c-0.017-0.129-0.029-0.259-0.052-0.386c1.517,0.28,3.279,0.429,5.128,0.429c2.39,0,5.845-0.305,8.004-1.259l0.006,3.188   C57.286,53.546,54.251,54.998,49.532,54.998z M49.532,42.998c-4.703,0-7.731-1.441-7.995-1.994c0.001-1.14,0.002-2.297,0.002-3.261   c0.025,0.011,0.055,0.02,0.081,0.031c0.239,0.102,0.489,0.198,0.755,0.286c0.014,0.005,0.028,0.01,0.043,0.014   c0.272,0.088,0.559,0.167,0.852,0.24c0.096,0.024,0.195,0.046,0.293,0.068c0.214,0.049,0.43,0.096,0.651,0.138   c0.107,0.021,0.213,0.041,0.321,0.06c0.243,0.043,0.487,0.081,0.734,0.117c0.078,0.011,0.155,0.024,0.233,0.035   c0.323,0.043,0.646,0.081,0.967,0.112c0.081,0.008,0.16,0.014,0.241,0.021c0.247,0.022,0.491,0.042,0.733,0.058   c0.105,0.007,0.207,0.013,0.31,0.019c0.224,0.013,0.442,0.023,0.658,0.031c0.091,0.003,0.182,0.007,0.271,0.01   c0.293,0.008,0.579,0.013,0.849,0.013c0.269,0,0.555-0.005,0.848-0.013c0.091-0.003,0.183-0.007,0.275-0.01   c0.214-0.008,0.431-0.018,0.654-0.031c0.105-0.006,0.208-0.012,0.314-0.019c0.242-0.016,0.487-0.036,0.734-0.059   c0.08-0.007,0.158-0.013,0.238-0.021c0.322-0.032,0.645-0.069,0.968-0.113c0.079-0.011,0.157-0.024,0.236-0.035   c0.246-0.035,0.49-0.074,0.732-0.117c0.109-0.019,0.215-0.04,0.322-0.06c0.221-0.043,0.438-0.089,0.653-0.139   c0.098-0.023,0.196-0.044,0.292-0.068c0.299-0.075,0.591-0.155,0.868-0.245c0.014-0.005,0.026-0.01,0.04-0.014   c0.261-0.086,0.508-0.181,0.743-0.281c0.028-0.012,0.061-0.022,0.089-0.034l0.006,3.188C57.286,41.546,54.251,42.998,49.532,42.998   z" fill="#FFFFFF"/>
</g>
<g>
</g>
<g>
</g>
<g>
</g>
<g>
</g>
<g>
</g>
<g>
</g>
<g>
</g>
<g>
</g>
<g>
</g>
<g>
</g>
<g>
</g>
<g>
</g>
<g>
</g>
<g>
</g>
<g>
</g>
</svg>
